HIERARCHY
ROOT root
{
	OFFSET	0	13.1	24.9
	CHANNELS 6  Xposition Yposition Zposition Xrotation Yrotation Zrotation
	JOINT spine_1
	{
		OFFSET	0	9.99999	0
		CHANNELS 3  Xrotation Yrotation Zrotation
		JOINT spine_2
		{
			OFFSET	0	112	-10
			CHANNELS 3  Xrotation Yrotation Zrotation
			JOINT spine_3
			{
				OFFSET	0	206.5	19.3
				CHANNELS 3  Xrotation Yrotation Zrotation
				JOINT spine_4
				{
					OFFSET	0	110.4	14.6
					CHANNELS 3  Xrotation Yrotation Zrotation
					JOINT neck_1
					{
						OFFSET	0	71.8	-50.3
						CHANNELS 3  Xrotation Yrotation Zrotation
						JOINT neck_2
						{
							OFFSET	0	86.2	-25.8
							CHANNELS 3  Xrotation Yrotation Zrotation
							JOINT head_ee
							{
								OFFSET	0	179.8	-8.7
								CHANNELS 3  Xrotation Yrotation Zrotation
								End Site
								{
									OFFSET	1	0	0
								}
							}
						}
					}
					JOINT left_clavicle
					{
						OFFSET	-43.2	22.4	-70.8
						CHANNELS 3  Xrotation Yrotation Zrotation
						JOINT left_shoulder
						{
							OFFSET	-93.9	-5.79999	48.7
							CHANNELS 3  Xrotation Yrotation Zrotation
							JOINT left_elbow
							{
								OFFSET	-291.4	-30.8	15.2
								CHANNELS 3  Xrotation Yrotation Zrotation
								JOINT left_lowarm_twist
								{
									OFFSET	-110.7	-3.89999	13.6
									CHANNELS 3  Xrotation Yrotation Zrotation
									JOINT left_hand
									{
										OFFSET	-110.7	-3.89999	13.6
										CHANNELS 3  Xrotation Yrotation Zrotation
										JOINT left_ee
										{
											OFFSET	-80.8	-5.10001	12.1
											CHANNELS 3  Xrotation Yrotation Zrotation
											End Site
											{
												OFFSET	1	0	0
											}
										}
									}
								}
							}
						}
					}
					JOINT right_clavicle
					{
						OFFSET	43.2	22.4	-70.8
						CHANNELS 3  Xrotation Yrotation Zrotation
						JOINT right_shoulder
						{
							OFFSET	93.9	-5.79999	48.7
							CHANNELS 3  Xrotation Yrotation Zrotation
							JOINT right_elbow
							{
								OFFSET	291.4	-30.8	15.2
								CHANNELS 3  Xrotation Yrotation Zrotation
								JOINT right_lowarm_twist
								{
									OFFSET	110.7	-3.89999	13.6
									CHANNELS 3  Xrotation Yrotation Zrotation
									JOINT right_hand
									{
										OFFSET	110.7	-3.89999	13.6
										CHANNELS 3  Xrotation Yrotation Zrotation
										JOINT right_ee
										{
											OFFSET	80.8	-5.10001	12.1
											CHANNELS 3  Xrotation Yrotation Zrotation
											End Site
											{
												OFFSET	1	0	0
											}
										}
									}
								}
							}
						}
					}
				}
			}
		}
	}
	JOINT left_hip
	{
		OFFSET	-82.8	-127.5	0.300001
		CHANNELS 3  Xrotation Yrotation Zrotation
		JOINT left_knee
		{
			OFFSET	-28.2	-396.7	2.2
			CHANNELS 3  Xrotation Yrotation Zrotation
			JOINT left_ankle
			{
				OFFSET	-11.7	-411.3	35.4
				CHANNELS 3  Xrotation Yrotation Zrotation
				JOINT left_toes
				{
					OFFSET	0	-60	-88.6
					CHANNELS 3  Xrotation Yrotation Zrotation
					JOINT left_foot_ee
					{
						OFFSET	-22.5	-16.5	-42.2
						CHANNELS 3  Xrotation Yrotation Zrotation
						End Site
						{
							OFFSET	1	0	0
						}
					}
				}
			}
		}
	}
	JOINT right_hip
	{
		OFFSET	82.8	-127.5	0.300001
		CHANNELS 3  Xrotation Yrotation Zrotation
		JOINT right_knee
		{
			OFFSET	28.2	-396.7	2.2
			CHANNELS 3  Xrotation Yrotation Zrotation
			JOINT right_ankle
			{
				OFFSET	11.7	-411.3	35.4
				CHANNELS 3  Xrotation Yrotation Zrotation
				JOINT right_toes
				{
					OFFSET	0	-60	-88.6
					CHANNELS 3  Xrotation Yrotation Zrotation
					JOINT right_foot_ee
					{
						OFFSET	22.5	-16.5	-42.2
						CHANNELS 3  Xrotation Yrotation Zrotation
						End Site
						{
							OFFSET	1	0	0
						}
					}
				}
			}
		}
	}
}
MOTION
Frames: 5
Frame Time: 0.02
3586.22 768.149 -481.824 16.9528 73.8086 -13.5692 -2.54827 -0.432016 -2.9662 -2.54341 -0.24248 -2.98765 -2.52491 0.521764 -2.95175 -2.53706 0.0492602 -2.99706 -3.68702 9.31701 6.21447 -3.55745 12.2258 7.83451 -0.0 0.0 -0.0 11.6277 -18.0281 23.2083 -14.7646 -1.12382 65.3231 0.752379 -20.4407 0.135652 26.4338 0.16274 -3.34297 -0.0412637 0.485555 -0.0706733 -0.0 0.0 -0.0 3.9242 -0.370803 -7.58813 -9.07052 34.7454 -49.1151 1.13922 29.4367 -0.299268 12.3056 -0.268454 1.54599 -1.0105 -1.95171 5.89962 0.0 0.0 0.0 -4.62349 -8.08048 -2.59679 -4.85422 0.169206 0.725541 6.76316 1.32371 -0.978377 35.9129 -0.0 -0.0 -0.0 0.0 -0.0 -9.213 -7.98044 1.464 4.14123 0.192554 0.606081 5.383 3.01514 0.791548 -5.87906 0.0 0.0 0.0 0.0 0.0 
3575.33 766.004 -474.762 18.7881 72.0598 -15.2996 -2.61152 -0.465852 -3.02413 -2.60647 -0.272566 -3.04761 -2.58573 0.511024 -3.01683 -2.59843 0.0283907 -3.05964 -3.51101 9.94629 6.78275 -3.35725 12.9028 8.50148 -0.0 0.0 -0.0 11.8267 -18.8278 23.6151 -14.644 -1.84251 65.4958 0.711662 -19.4194 0.121773 25.9693 0.173248 -3.28456 0.0846533 0.0112634 0.570029 -0.0 0.0 -0.0 3.86242 -0.100914 -7.45485 -9.0373 34.6777 -49.0717 1.04977 27.475 -0.256641 12.5475 -0.270382 1.57683 -0.984269 -3.48637 5.04533 0.0 0.0 0.0 -5.42003 -5.50435 -2.63942 -5.62491 0.190386 0.841918 10.8063 0.401162 -1.54465 34.6693 -0.0 -0.0 -0.0 0.0 -0.0 -10.134 -7.34579 2.09282 5.65796 0.273989 0.824427 4.40819 2.30727 0.648617 -9.04723 0.0 0.0 0.0 0.0 0.0 
3560.51 761.262 -472.977 21.0189 71.7154 -17.4779 -2.80232 -0.598031 -3.15075 -2.79688 -0.396433 -3.18237 -2.76752 0.435437 -3.17728 -2.7816 -0.0715522 -3.20615 -2.38546 12.6909 9.50904 -2.08755 15.4989 11.6265 -0.0 0.0 -0.0 11.7535 -17.8984 23.503 -12.0094 -3.6006 64.8234 0.683861 -18.7146 0.11269 25.4243 0.18497 -3.21593 -0.182254 1.50258 -0.579864 -0.0 0.0 -0.0 3.72594 -0.0915201 -7.19021 -10.2837 33.8954 -49.2675 1.04385 27.3424 -0.253913 12.0845 -0.26658 1.51782 -0.917159 -1.89408 5.30223 0.0 0.0 0.0 -6.07522 -6.2054 -2.59018 -7.01818 0.224693 1.05298 10.5334 2.33814 -1.50138 32.208 -0.0 -0.0 -0.0 0.0 -0.0 -11.3076 -7.16913 2.9003 3.91904 0.181111 0.573921 7.9859 4.66483 1.17133 -8.70839 0.0 0.0 0.0 0.0 0.0 
3551.69 761.025 -472.094 23.7394 72.4133 -20.284 -2.90424 -0.752768 -3.08062 -2.89914 -0.555313 -3.12222 -2.8613 0.271351 -3.15955 -2.87515 -0.23079 -3.16277 -1.26812 13.6431 10.505 -0.901387 16.1017 12.7192 -0.0 0.0 -0.0 11.6531 -17.8302 23.2774 -10.9865 -4.89459 64.5074 0.642153 -17.6462 0.0996765 24.8462 0.196692 -3.14301 -0.295813 2.23622 -1.02284 -0.0 0.0 -0.0 3.31706 -0.476276 -6.42314 -9.88348 33.3039 -50.8434 0.991444 26.1566 -0.230326 12.1633 -0.26726 1.52786 -0.741469 -0.408687 4.77921 0.0 0.0 0.0 -7.39643 -6.30715 -2.34623 -5.95851 0.199068 0.892378 13.0297 3.56429 -1.83654 29.9783 -0.0 -0.0 -0.0 0.0 -0.0 -10.4099 -7.89276 2.69883 2.1495 0.0944649 0.316288 8.73913 0.988591 1.26288 -9.27808 0.0 0.0 0.0 0.0 0.0 
3542.9 761.618 -471.107 23.2779 72.3763 -19.61 -2.94959 -0.78893 -3.14037 -2.9443 -0.587605 -3.18415 -2.90365 0.258535 -3.22753 -2.91809 -0.254165 -3.22788 -1.38566 14.4424 11.7585 -0.948101 16.5606 14.1309 -0.0 0.0 -0.0 11.3869 -16.5544 22.7374 -9.85819 -8.08687 63.9289 0.645167 -17.7238 0.100592 24.07 0.21127 -3.04494 -0.337795 2.99374 -0.978741 -0.0 0.0 -0.0 3.43937 -0.937529 -6.6854 -10.4322 32.6736 -51.1005 0.9535 25.2826 -0.213859 12.4574 -0.26968 1.56535 -0.59476 -0.634766 3.69998 0.0 0.0 0.0 -8.64924 -5.71061 -2.04584 -3.87449 0.140021 0.578017 12.7853 5.06847 -1.80101 27.5435 -0.0 -0.0 -0.0 0.0 -0.0 -9.81542 -7.66746 2.12266 0.776783 0.032765 0.114698 8.90431 -3.01658 1.27512 -9.18554 0.0 0.0 0.0 0.0 0.0 
